<svg xmlns="http://www.w3.org/2000/svg" xmlns:xlink="http://www.w3.org/1999/xlink" viewBox="0 0 339 205"><defs><style>.cls-1{fill:none;}.cls-1,.cls-2{stroke:#d6d6d6;stroke-miterlimit:10;}.cls-2,.cls-5{fill:#e8e8e8;}.cls-3{clip-path:url(#clip-path);}.cls-4{fill:url(#Degradado_sin_nombre_10);}</style><clipPath id="clip-path"><rect class="cls-1" x="33" y="17" width="88" height="110"/></clipPath><linearGradient id="Degradado_sin_nombre_10" x1="77.25" y1="33.43" x2="77.25" y2="136.41" gradientUnits="userSpaceOnUse"><stop offset="0.03" stop-color="#0480cf"/><stop offset="1" stop-color="#03609c"/></linearGradient></defs><title>Asset 41</title><g id="Layer_2" data-name="Layer 2"><g id="Capa_1" data-name="Capa 1"><rect class="cls-1" x="0.5" y="0.5" width="338" height="204" rx="11" ry="11"/><path class="cls-2" d="M.5,148h338a0,0,0,0,1,0,0v45.5a11,11,0,0,1-11,11H11.5a11,11,0,0,1-11-11V148A0,0,0,0,1,.5,148Z"/><g class="cls-3"><path class="cls-4" d="M74.13,27.66h6.24c.85.17,1.69.36,2.55.51,7.88,1.38,13.06,6,15.85,13.37a36.61,36.61,0,0,1,2.13,17.33c-.37,3.26-.61,6.54-1.07,9.79a44.25,44.25,0,0,1-4.15,13.79c-.85,1.71-1.92,3.31-2.74,5-1.43,3-1.47,7.27,1.59,9.85a19.7,19.7,0,0,0,6.41,3.52c5.63,1.94,11.24,4,16.77,6.17a32.52,32.52,0,0,1,9.34,5.66,11.73,11.73,0,0,1,3.45,5.63v11.17a8.51,8.51,0,0,1-4.68,4.67H28.68A8.54,8.54,0,0,1,24,129.48V118.31A10.25,10.25,0,0,1,27.21,113,33.4,33.4,0,0,1,34,108.5c4.79-2.22,9.74-4.09,14.66-6,2.9-1.14,6-1.87,8.77-3.26,4-2,6.58-5.78,4.51-10.8-.84-2.06-2.12-3.94-3.08-6-3.3-7-4.67-14.42-5.15-22a89.53,89.53,0,0,1,.23-10.86,26,26,0,0,1,3.65-11.8,18.83,18.83,0,0,1,12-9.09C71,28.3,72.59,28,74.13,27.66Z"/></g><rect class="cls-1" x="33" y="17" width="88" height="110"/><rect class="cls-5" x="142" y="17" width="182" height="21.42"/><rect class="cls-5" x="142" y="61.04" width="182" height="21.42"/><rect class="cls-5" x="142" y="105.08" width="182" height="21.42"/></g></g></svg>