<svg xmlns="http://www.w3.org/2000/svg" xmlns:xlink="http://www.w3.org/1999/xlink" viewBox="0 0 103.46 108.1"><defs><style>.cls-1{fill:url(#Degradado_sin_nombre_18);}.cls-2{fill:url(#Degradado_sin_nombre_18-2);}.cls-3{fill:url(#Degradado_sin_nombre_18-3);}.cls-4{fill:url(#Degradado_sin_nombre_18-4);}</style><linearGradient id="Degradado_sin_nombre_18" x1="-47.98" y1="-71.25" x2="306.22" y2="307.11" gradientUnits="userSpaceOnUse"><stop offset="0.04" stop-color="#8cc63f"/><stop offset="1" stop-color="#69942f"/></linearGradient><linearGradient id="Degradado_sin_nombre_18-2" x1="-57.44" y1="-62.39" x2="296.76" y2="315.96" xlink:href="#Degradado_sin_nombre_18"/><linearGradient id="Degradado_sin_nombre_18-3" x1="-55.94" y1="-63.8" x2="298.27" y2="314.55" xlink:href="#Degradado_sin_nombre_18"/><linearGradient id="Degradado_sin_nombre_18-4" x1="-81.02" y1="-40.32" x2="273.19" y2="338.03" xlink:href="#Degradado_sin_nombre_18"/></defs><title>Asset 91</title><g id="Layer_2" data-name="Layer 2"><g id="Capa_1" data-name="Capa 1"><path class="cls-1" d="M54.67,40.58a7.11,7.11,0,0,0-1.25,2.22A15.23,15.23,0,0,1,50,48.7a10.61,10.61,0,0,1-7.55,3.54h0a10.67,10.67,0,0,1-7.6-3.57,15.19,15.19,0,0,1-3.53-6.18,5.07,5.07,0,0,0-.94-1.68c-2.76-3.22-3.91-6.3-3.63-9.71l0-.21c0-.19,0-.45.07-.61a2.43,2.43,0,0,0,1.51-2.46c0-.89,0-1.8,0-2.67s0-2,.05-2.95a3,3,0,0,1,3-3h.09l1.5.05c1.24-.1,2.49-.09,3.74-.11s2.23,0,3.34,0h6.88l2.65,0h2.29a7.48,7.48,0,0,1,2.21.21,2.89,2.89,0,0,1,1.84,1.53,12.59,12.59,0,0,1,.5,1.58l0,0c0,.85,0,1.71,0,2.6s0,1.58,0,2.38c0,.21,0,.43,0,.66v.45A1.85,1.85,0,0,0,58,30.31a3.82,3.82,0,0,1,.07.49C58.43,34.21,57.35,37.33,54.67,40.58ZM22.7,31c.07.72.12,1.44.17,2.16a17.28,17.28,0,0,0,4.55,10.19,1.05,1.05,0,0,1,.19.34,19,19,0,0,0,4.45,7.69A14.4,14.4,0,0,0,42.4,56.08h0a14.34,14.34,0,0,0,10.3-4.7A19,19,0,0,0,57.06,44a3.42,3.42,0,0,1,.57-1C60.55,39.48,62,35.87,62,32v-.79L62,18c-.06-.45-.13-.89-.19-1.34l.21.52.34.89c.16.46.3.91.45,1.37a.93.93,0,0,0,0-.24A18.46,18.46,0,0,0,61.54,15l-.15-.31h0l-.24-.59-.62-1.71c-.16-.43-.32-.87-.47-1.3L60,10.86l.1,0c.53.84,1.06,1.68,1.6,2.52-.08-.28-.19-.56-.3-.84a8.68,8.68,0,0,0-2-3.13,2.76,2.76,0,0,1-.52-.61A9.29,9.29,0,0,0,55.14,5.4L55,5.34c-.72-.32-1.44-.62-2.16-.93l-.54-.23,1.08.12a20.84,20.84,0,0,1,5.85,1.88A2,2,0,0,0,59,6,16.35,16.35,0,0,0,51.56,3.4l-.3,0A9,9,0,0,1,48.6,2.9a8.86,8.86,0,0,0-1-.29L46.34,2.3l-.29-.07a.22.22,0,0,1,0-.08h4.61c0-.09-.07-.12-.12-.13a26.1,26.1,0,0,0-6-.32,9.64,9.64,0,0,1-2.08,0c-.3-.05-.61-.06-.92-.08V1.53L46.1.67a29.67,29.67,0,0,0-4.59.41c-.83.15-1.65.41-2.48.52-1.2.16-2.4.22-3.61.32A23.15,23.15,0,0,1,43,0c-.49,0-1,0-1.46,0A24.59,24.59,0,0,0,36.16.8a10.69,10.69,0,0,0-4,1.91,7,7,0,0,1-.74.46l-.08-.12c.54-.39,1.07-.81,1.64-1.17a18.39,18.39,0,0,1,1.8-1C35.37.63,36,.4,36.61.15A18.48,18.48,0,0,0,33.1,1.44c-2.23,1.1-3.91,2.92-5.83,4.42h0c-.12.2-.26.4-.37.61s-.28.64-.47.94a.93.93,0,0,1-.42.29c-.31.13-.65.2-1,.34A5.28,5.28,0,0,0,22,11.85,6.81,6.81,0,0,1,23.61,9.7c-.2.68-.36,1.29-.56,1.89a2.88,2.88,0,0,1-.36.75,7.65,7.65,0,0,0-.88,1.94l.85-1.46.07,0c0,.12-.05.25-.08.37l0,.08A32.43,32.43,0,0,0,22,23.66Z"/><path class="cls-2" d="M83.31,108.1A20.15,20.15,0,1,1,103.46,88,20.18,20.18,0,0,1,83.31,108.1Zm0-35A14.83,14.83,0,1,0,98.13,88,14.85,14.85,0,0,0,83.31,73.12Z"/><path class="cls-3" d="M93,81.24a2.72,2.72,0,0,0-3.83,0l-7.67,7.67L77.41,84.8a2.71,2.71,0,0,0-3.83,3.83l6,6a2.69,2.69,0,0,0,3.83,0L93,85.08a2.73,2.73,0,0,0,.79-1.92A2.69,2.69,0,0,0,93,81.24Z"/><path class="cls-4" d="M58.81,88A24.52,24.52,0,0,1,71.37,66.58a29.87,29.87,0,0,0-8.39-3c-2.56-.53-6-4.38-7.47-7.51l-.78.58a19.24,19.24,0,0,1-24.83,0l1.14.92a23.94,23.94,0,0,1-1.92-1.51c-1.46,3.14-4.9,7-7.46,7.52C10.39,65.91,3.63,72.38,2.22,84L0,100.9c-.07,1.38.1,1.61,1.37,2.1.6.23,1.21.46,1.82.66A75.1,75.1,0,0,0,20.37,107c7.32.61,14.66.92,18.43,1.15,11.66-.1,20.31-.44,28.65-1.51A24.47,24.47,0,0,1,58.81,88Z"/></g></g></svg>