<svg xmlns="http://www.w3.org/2000/svg" xmlns:xlink="http://www.w3.org/1999/xlink" viewBox="0 0 112.31 84.56"><defs><style>.cls-1{fill:url(#Degradado_sin_nombre_18);}</style><linearGradient id="Degradado_sin_nombre_18" x1="1.6" y1="39.81" x2="109.1" y2="39.81" gradientTransform="matrix(0.99, -0.11, 0.11, 0.99, -3.93, 6.13)" gradientUnits="userSpaceOnUse"><stop offset="0.04" stop-color="#8cc63f"/><stop offset="1" stop-color="#69942f"/></linearGradient></defs><title>Asset 41</title><g id="Layer_2" data-name="Layer 2"><g id="Capa_1" data-name="Capa 1"><path class="cls-1" d="M51.09,0a6.23,6.23,0,0,0-5.55,6.88l1.33,12.43A6.25,6.25,0,0,0,59.3,18L58,5.58A6.23,6.23,0,0,0,51.09,0ZM6.7,19.88A7.5,7.5,0,0,0,0,28.14L5.38,77.86a7.47,7.47,0,0,0,8.25,6.65l92-9.86a7.48,7.48,0,0,0,6.65-8.26l-5.33-49.71A7.48,7.48,0,0,0,98.67,10L61.39,14l.4,3.73a8.75,8.75,0,1,1-17.4,1.86L44,15.88ZM30.81,33.64a7.5,7.5,0,1,1-6.66,8.26A7.5,7.5,0,0,1,30.81,33.64Zm28.58-3.06,36.05-3.87a2.5,2.5,0,1,1,.53,5l-36,3.87a2.5,2.5,0,1,1-.54-5Zm1.47,13.67,36-3.87a2.5,2.5,0,1,1,.53,5l-36,3.87a2.5,2.5,0,1,1-.53-5ZM32.94,53.53c9-1,16.67,3,17.27,8.63l.22,2.06L18.11,67.69l-.22-2.06C17.29,60,24,54.49,32.94,53.53Zm29.38,4.39,36.05-3.87a2.5,2.5,0,1,1,.53,5l-36,3.87a2.5,2.5,0,0,1-.54-5Z"/></g></g></svg>