<svg xmlns="http://www.w3.org/2000/svg" xmlns:xlink="http://www.w3.org/1999/xlink" viewBox="0 0 58.1 81.47"><defs><style>.cls-1{fill:url(#Degradado_sin_nombre_18);}</style><linearGradient id="Degradado_sin_nombre_18" x1="29.05" y1="23.23" x2="29.05" y2="92.01" gradientUnits="userSpaceOnUse"><stop offset="0.04" stop-color="#8cc63f"/><stop offset="1" stop-color="#69942f"/></linearGradient></defs><title>Asset 71</title><g id="Layer_2" data-name="Layer 2"><g id="Capa_1" data-name="Capa 1"><path class="cls-1" d="M12.36,36.66H45.74A1.24,1.24,0,0,1,47,37.91V38h0a1.25,1.25,0,0,1-1.23,1.13H12.36a1.26,1.26,0,0,1,0-2.51Zm33.38,8.46H12.36a1.25,1.25,0,0,0-1.23,1.25,1.25,1.25,0,0,0,1.23,1.26H45.74A1.25,1.25,0,0,0,47,46.55a1.09,1.09,0,0,0,0-.18A1.24,1.24,0,0,0,45.74,45.12Zm0,8.46H12.36a1.19,1.19,0,0,0-.78.29,1.23,1.23,0,0,0-.45,1,1.25,1.25,0,0,0,1.23,1.26H45.74a1.25,1.25,0,0,0,1.13-.75v0A1.89,1.89,0,0,0,47,55v-.13A1.24,1.24,0,0,0,45.74,53.58Zm1.13,1.76v0Zm0,0v0Zm0,0a1.25,1.25,0,0,1-1.13.75A1.25,1.25,0,0,0,46.87,55.34ZM12.36,12.65H29.05a1.25,1.25,0,0,0,0-2.5H12.36a1.25,1.25,0,0,0,0,2.5ZM45.74,62H29.05a1.26,1.26,0,0,0,0,2.51H45.74a1.26,1.26,0,0,0,0-2.51ZM47,54.83h0v0ZM47,55a1.89,1.89,0,0,1-.09.34A1.89,1.89,0,0,0,47,55Zm0,0v0Zm-35.84-.09a1.23,1.23,0,0,1,.45-1,1.23,1.23,0,0,0-.45,1,1.25,1.25,0,0,0,1.23,1.26h0A1.25,1.25,0,0,1,11.13,54.83Zm34.61-1.25H12.36a1.19,1.19,0,0,0-.78.29,1.19,1.19,0,0,1,.78-.29H45.74A1.24,1.24,0,0,1,47,54.83h0A1.24,1.24,0,0,0,45.74,53.58ZM47,38Zm-1.23,1.13H12.36a1.26,1.26,0,0,1,0-2.51h0a1.26,1.26,0,0,0,0,2.51H45.74A1.25,1.25,0,0,0,47,38,1.25,1.25,0,0,1,45.74,39.17ZM11.13,11.4a1.24,1.24,0,0,0,1.23,1.25H29.05a1.25,1.25,0,0,0,0-2.5H12.36A1.24,1.24,0,0,0,11.13,11.4ZM47,63.29A1.24,1.24,0,0,0,45.74,62H29.05a1.26,1.26,0,0,0,0,2.51H45.74A1.25,1.25,0,0,0,47,63.29Zm0-8.46h0a1.24,1.24,0,0,0-1.23-1.25H12.36a1.19,1.19,0,0,0-.78.29,1.23,1.23,0,0,0-.45,1,1.25,1.25,0,0,0,1.23,1.26H45.74a1.25,1.25,0,0,0,1.13-.75v0A1.89,1.89,0,0,0,47,55v-.13Zm0-8.46a1.24,1.24,0,0,0-1.23-1.25H12.36a1.23,1.23,0,0,0-.95.46,1.21,1.21,0,0,0-.28.79,1.25,1.25,0,0,0,1.23,1.26H45.74A1.25,1.25,0,0,0,47,46.55,1.09,1.09,0,0,0,47,46.37ZM45.73,27.66H12.35a1.26,1.26,0,0,0,0,2.51H45.73A1.24,1.24,0,0,0,47,29.05h0v-.13h0A1.25,1.25,0,0,0,45.73,27.66ZM58.1,18.17v62a1.24,1.24,0,0,1-.77,1.16A1.22,1.22,0,0,1,56,81.1L51.3,76.35,46.61,81.1a1.23,1.23,0,0,1-1.75,0l-4.69-4.75L35.49,81.1a1.28,1.28,0,0,1-.88.37,1.23,1.23,0,0,1-.87-.37l-4.69-4.75L24.36,81.1a1.23,1.23,0,0,1-1.75,0l-4.68-4.75L13.24,81.1a1.23,1.23,0,0,1-1.75,0L6.8,76.35,2.11,81.1a1.23,1.23,0,0,1-1.35.27A1.25,1.25,0,0,1,0,80.21v-79A1.24,1.24,0,0,1,1.24,0H40.41l.07,0h.05l.06,0,0,0,0,0,.06,0,0,0,.06,0,0,0,.05,0,.09.09L57.73,17.29l.11.12,0,0,.08.13h0l.06.14v0a.94.94,0,0,1,0,.16h0a.88.88,0,0,1,0,.16v0A.06.06,0,0,1,58.1,18.17Zm-2.48,1.26H40.17a1.24,1.24,0,0,1-1.23-1.26V2.51H2.47V77.19l3.45-3.5a1.23,1.23,0,0,1,1.75,0l4.69,4.75,4.69-4.75a1.23,1.23,0,0,1,1.75,0l4.69,4.75,4.69-4.75a1.21,1.21,0,0,1,1.74,0l4.69,4.75,4.69-4.75a1.23,1.23,0,0,1,1.75,0l4.69,4.75,4.68-4.75a1.23,1.23,0,0,1,1.75,0l3.45,3.5V19.43ZM47,37.91h0a1.24,1.24,0,0,0-1.23-1.25A1.24,1.24,0,0,1,47,37.91ZM47,38v-.13h0Zm-1.23,9.59H12.36a1.25,1.25,0,0,1-1.23-1.26,1.21,1.21,0,0,1,.28-.79,1.21,1.21,0,0,0-.28.79,1.25,1.25,0,0,0,1.23,1.26H45.74A1.25,1.25,0,0,0,47,46.55,1.25,1.25,0,0,1,45.74,47.63ZM47,46.37a1.09,1.09,0,0,1,0,.18A1.09,1.09,0,0,0,47,46.37Zm-1.23-1.25H12.36a1.23,1.23,0,0,0-.95.46,1.23,1.23,0,0,1,.95-.46H45.74A1.24,1.24,0,0,1,47,46.37,1.24,1.24,0,0,0,45.74,45.12Z"/></g></g></svg>