<svg xmlns="http://www.w3.org/2000/svg" xmlns:xlink="http://www.w3.org/1999/xlink" viewBox="0 0 49.27 49.27"><defs><style>.cls-1{fill:#8cc63f;}.cls-2{fill:url(#Degradado_sin_nombre_26);}</style><linearGradient id="Degradado_sin_nombre_26" x1="-145.58" y1="-160.86" x2="287.39" y2="301.62" gradientUnits="userSpaceOnUse"><stop offset="0" stop-color="#8cc63f"/><stop offset="1" stop-color="#69942f"/></linearGradient></defs><title>Asset 101</title><g id="Layer_2" data-name="Layer 2"><g id="Capa_1" data-name="Capa 1"><path class="cls-1" d="M24.63,49.27A24.64,24.64,0,1,1,49.27,24.63,24.66,24.66,0,0,1,24.63,49.27Zm0-42.76A18.13,18.13,0,1,0,42.76,24.63,18.14,18.14,0,0,0,24.63,6.51Z"/><path class="cls-2" d="M36.52,16.43a3.32,3.32,0,0,0-4.69,0l-9.37,9.38-5-5a3.32,3.32,0,0,0-4.69,4.69l7.37,7.37a3.32,3.32,0,0,0,4.69,0L36.52,21.12a3.32,3.32,0,0,0,1-2.34A3.29,3.29,0,0,0,36.52,16.43Z"/></g></g></svg>