<svg xmlns="http://www.w3.org/2000/svg" xmlns:xlink="http://www.w3.org/1999/xlink" viewBox="0 0 336.99 410.01"><defs><style>.cls-1{opacity:0.07;}.cls-2{fill:url(#Degradado_sin_nombre_10);}.cls-3{fill:url(#Degradado_sin_nombre_18);}.cls-4{fill:#f1f1f1;}</style><linearGradient id="Degradado_sin_nombre_10" x1="172.26" y1="118.41" x2="172.26" y2="274.59" gradientUnits="userSpaceOnUse"><stop offset="0.03" stop-color="#0480cf"/><stop offset="1" stop-color="#03609c"/></linearGradient><linearGradient id="Degradado_sin_nombre_18" x1="247.49" y1="290.53" x2="236.73" y2="218.52" gradientUnits="userSpaceOnUse"><stop offset="0.04" stop-color="#8cc63f"/><stop offset="1" stop-color="#69942f"/></linearGradient></defs><title>Asset 21</title><g id="Layer_2" data-name="Layer 2"><g id="Capa_1" data-name="Capa 1"><g class="cls-1"><path d="M336.92,78.93a6.21,6.21,0,0,0-4.1-6.81Q252.53,36.69,172.64.93a8.62,8.62,0,0,0-7.79,0Q84.53,36.9,4.14,72.24A5.58,5.58,0,0,0,0,78.31c.37,36.5,0,73,.37,109.58A239.87,239.87,0,0,0,3.32,223.6a235.17,235.17,0,0,0,43.8,103.71c29.11,39.25,66.35,67.3,113.51,81.48a25.69,25.69,0,0,0,15.66,0A213.85,213.85,0,0,0,285.58,333a235.38,235.38,0,0,0,51.26-147.63V138.06Q336.59,108.54,336.92,78.93Zm-28.7,70.53v39.29a195.4,195.4,0,0,1-42.49,122.53,177.59,177.59,0,0,1-90.75,63,21.52,21.52,0,0,1-13,0A179.94,179.94,0,0,1,67.66,306.6a195.2,195.2,0,0,1-36.41-86.11,198.05,198.05,0,0,1-2.13-29.69c-.29-30.31,0-60.65,0-91a4.63,4.63,0,0,1,3.32-5q66.39-29.53,133-59.26a7.14,7.14,0,0,1,6.43,0q66.44,29.7,133,59.14a5.12,5.12,0,0,1,3.53,5.65c-.16,16.37-.08,32.73-.08,49.13Z"/><path d="M281.81,113.29,171.09,64.08a6.77,6.77,0,0,0-2.55-.53V205h115.6q.54-6.69.58-13.54V117.68A4.12,4.12,0,0,0,281.81,113.29Z"/><path d="M54.5,217.82a162.27,162.27,0,0,0,30.26,71.56,149.54,149.54,0,0,0,78.33,56.22,18.68,18.68,0,0,0,5.45.9V205H53A127.87,127.87,0,0,0,54.5,217.82Z"/></g><path class="cls-2" d="M167.53,109.66H177c1.28.27,2.57.56,3.86.78,12,2.09,19.82,9.18,24,20.27A55.58,55.58,0,0,1,208.12,157c-.56,4.95-.92,9.92-1.62,14.84a67.57,67.57,0,0,1-6.29,20.92c-1.29,2.59-2.91,5-4.16,7.62-2.17,4.55-2.23,11,2.42,14.94a29.75,29.75,0,0,0,9.71,5.34c8.54,3,17,6,25.44,9.36a49.45,49.45,0,0,1,14.15,8.58,17.75,17.75,0,0,1,5.24,8.54v16.94a12.94,12.94,0,0,1-7.09,7.09H98.6a12.94,12.94,0,0,1-7.09-7.09V247.14a15.56,15.56,0,0,1,4.85-8.08,51,51,0,0,1,10.25-6.8c7.26-3.36,14.77-6.2,22.22-9.13,4.41-1.74,9.1-2.85,13.32-4.95,6.13-3.06,10-8.77,6.83-16.39-1.28-3.12-3.22-6-4.67-9-5-10.56-7.09-21.87-7.81-33.4a133.39,133.39,0,0,1,.35-16.48A39.3,39.3,0,0,1,142.38,125a28.53,28.53,0,0,1,18.12-13.78C162.83,110.64,165.19,110.18,167.53,109.66Z"/><circle class="cls-3" cx="243.59" cy="264.44" r="22.88"/><g id="checkmark"><g id="_1040-checkmark-toolbar-selected_2x.png" data-name="1040-checkmark-toolbar-selected@2x.png"><path class="cls-4" d="M253.3,252.32a2.22,2.22,0,0,0-1.77.77L237.59,268l-4.7-4.58h0a2.4,2.4,0,0,0-1.69-.69,2.35,2.35,0,0,0-2,3.7h0l6.73,9.39a2.13,2.13,0,0,0,2,1,2.24,2.24,0,0,0,1.91-.92l15.38-19.77a2.05,2.05,0,0,0,.49-1.42A2.38,2.38,0,0,0,253.3,252.32Z"/></g></g></g></g></svg>