<svg xmlns="http://www.w3.org/2000/svg" xmlns:xlink="http://www.w3.org/1999/xlink" viewBox="0 0 27.09 24"><defs><style>.cls-1{fill:none;}.cls-2{clip-path:url(#clip-path);}.cls-3{clip-path:url(#clip-path-2);}.cls-4{fill:url(#radial-gradient);}.cls-5{fill:#fff;}.cls-6{fill:#007dc3;}.cls-7{fill:#00aae5;}.cls-8{fill:#00b1e8;}.cls-9{fill:#47baeb;}</style><clipPath id="clip-path" transform="translate(0 0)"><rect class="cls-1" width="27.09" height="24"/></clipPath><clipPath id="clip-path-2" transform="translate(0 0)"><path class="cls-1" d="M3.15,0V23.88h23.8V16a.91.91,0,0,0,.14-.53.82.82,0,0,0-.14-.52V0Z"/></clipPath><radialGradient id="radial-gradient" cx="-275.5" cy="-1326.06" r="0.66" gradientTransform="matrix(42.8, 0, 0, -42.8, 11797.47, -56746.8)" gradientUnits="userSpaceOnUse"><stop offset="0" stop-color="#84d5f7"/><stop offset="0.05" stop-color="#7ed3f6"/><stop offset="0.12" stop-color="#6dcef4"/><stop offset="0.2" stop-color="#51c5f0"/><stop offset="0.29" stop-color="#2bb8eb"/><stop offset="0.37" stop-color="#00aae5"/><stop offset="0.45" stop-color="#009edc"/><stop offset="0.63" stop-color="#008cce"/><stop offset="0.8" stop-color="#0081c6"/><stop offset="1" stop-color="#007dc3"/></radialGradient></defs><title>amer-express</title><g id="Layer_2" data-name="Layer 2"><g id="Basework"><g id="Ilustración_12" data-name="Ilustración 12"><g class="cls-2"><g class="cls-3"><rect class="cls-4" x="3.15" width="23.94" height="23.88"/></g><g class="cls-2"><path class="cls-5" d="M3.15,12.09H4.29l.26-.62h.58l.26.62H7.63v-.48l.2.48H9l.2-.48v.48h5.59v-1h.11c.08,0,.1,0,.1.13v.89h2.89v-.24a2.29,2.29,0,0,0,1.07.24h1.22l.26-.62H21l.26.62h2.34V11.5l.35.59h1.88V8.19H24v.46l-.26-.46H21.81v.46l-.24-.46H19a2.32,2.32,0,0,0-1.12.23V8.19H16.11v.23a1.11,1.11,0,0,0-.76-.23H8.86l-.44,1L8,8.19h-2v.46L5.7,8.19H4L3.15,10Zm22.09-.55h-.95L23,9.44v2.1H21.67l-.26-.62H20l-.25.62H19a1.4,1.4,0,0,1-1-.31,1.4,1.4,0,0,1-.36-1.07A1.48,1.48,0,0,1,18,9.07a1.36,1.36,0,0,1,1-.33h.65v.6H19a.65.65,0,0,0-.52.17.94.94,0,0,0-.19.63,1,1,0,0,0,.18.66.64.64,0,0,0,.46.14h.3l.94-2.2h1l1.13,2.65V8.74h1l1.18,1.95V8.74h.68Zm-7.92,0h-.68V8.74h.68Zm-1.07-2a.79.79,0,0,1-.47.74.75.75,0,0,1,.33.24.79.79,0,0,1,.11.51v.55h-.67v-.35a.82.82,0,0,0-.11-.54c-.1-.1-.24-.12-.49-.12h-.72v1h-.67V8.74h1.54a1.58,1.58,0,0,1,.81.14.65.65,0,0,1,.34.62m-3.15,2H10.87V8.74H13.1v.58H11.54v.5h1.53v.57H11.54V11H13.1Zm-2.73,0H9.69V9.35l-1,2.19H8.13l-1-2.19v2.19H5.79l-.26-.62H4.14l-.26.62H3.16l1.2-2.8h1l1.14,2.65V8.74H7.58l.87,1.9.8-1.9h1.11Zm10.8-1.21-.46-1.11-.46,1.11Zm-5.8-.44a.66.66,0,0,1-.33.06h-.81V9.33h.82a.71.71,0,0,1,.32,0,.26.26,0,0,1,.14.25.3.3,0,0,1-.14.27m-10.08.44L4.84,9.22l-.46,1.11Z" transform="translate(0 0)"/><path class="cls-5" d="M16.11,14.48c0,.78-.58.94-1.16.94h-.83v.94h-1.3L12,15.43l-.86.93H8.49v-2.8h2.69l.82.92.85-.92H15c.53,0,1.13.15,1.13.92M10.8,15.77H9.15v-.56h1.47v-.57H9.15v-.51h1.68l.73.81Zm2.65.33-1-1.14,1-1.1ZM15,14.85h-.87v-.71H15c.24,0,.41.1.41.34s-.16.37-.42.37m4.51-1.29h2.23v.58H20.16v.51h1.53v.57H20.16v.56h1.57v.58H19.49Zm-.85,1.5a.71.71,0,0,1,.33.24.81.81,0,0,1,.11.51v.55h-.67V16c0-.17,0-.42-.11-.55s-.25-.13-.49-.13H17.1v1h-.67v-2.8H18a1.63,1.63,0,0,1,.81.13.65.65,0,0,1,.34.62.78.78,0,0,1-.47.74m-.4-.35a.65.65,0,0,1-.33.06H17.1v-.63h.82a.67.67,0,0,1,.32,0,.27.27,0,0,1,.14.25.3.3,0,0,1-.14.27m6,.17a.78.78,0,0,1,.2.59c0,.6-.38.88-1.05.88h-1.3v-.6h1.3a.39.39,0,0,0,.27-.07.24.24,0,0,0,.08-.18.23.23,0,0,0-.08-.18.35.35,0,0,0-.24-.06c-.63,0-1.41,0-1.41-.87,0-.41.26-.83,1-.83h1.34v.6H23.12a.46.46,0,0,0-.27.05.22.22,0,0,0-.1.2.21.21,0,0,0,.15.21.79.79,0,0,0,.26,0h.36a1.09,1.09,0,0,1,.76.22M26.95,16a1,1,0,0,1-.91.36H24.75v-.6H26a.38.38,0,0,0,.27-.07.24.24,0,0,0,.08-.18.23.23,0,0,0-.08-.18.34.34,0,0,0-.24-.06c-.63,0-1.41,0-1.41-.87,0-.41.26-.83,1-.83h1.33V13H25.71a1.4,1.4,0,0,0-.84.23V13H23a1.28,1.28,0,0,0-.8.23V13H19v.23a1.75,1.75,0,0,0-.9-.23H15.91v.23A1.53,1.53,0,0,0,15,13H12.56l-.55.6-.52-.6H7.88v3.91h3.54L12,16.3l.54.61H14.7V16h.22a2.3,2.3,0,0,0,.93-.14v1.05h1.8v-1h.09c.11,0,.12,0,.12.12v.9h5.46a1.55,1.55,0,0,0,.91-.25v.25H26a2.33,2.33,0,0,0,1-.18Zm0-1.85H25.73a.46.46,0,0,0-.27.05.22.22,0,0,0-.1.2.21.21,0,0,0,.15.21.79.79,0,0,0,.26,0h.36a1.08,1.08,0,0,1,.76.22l.06.07Z" transform="translate(0 0)"/><path class="cls-6" d="M1.63,23.39H1.42a1.16,1.16,0,0,1,0-.28c0-.08,0-.16-.16-.16H.92v.43H.74V22.33h.49c.17,0,.36.06.36.3a.27.27,0,0,1-.11.24s.09.07.09.19v.18c0,.05,0,.06.05.09Zm-.23-.75c0-.13-.09-.14-.16-.14H.92v.3h.29c.1,0,.18,0,.18-.15m.87.23A1.13,1.13,0,1,0,1.13,24a1.13,1.13,0,0,0,1.13-1.13m-.17,0a1,1,0,0,1-1,1,1,1,0,1,1,0-1.92,1,1,0,0,1,1,1" transform="translate(0 0)"/><path class="cls-7" d="M16.25,9.5a.79.79,0,0,1-.47.75.75.75,0,0,1,.33.24.8.8,0,0,1,.11.51v.55h-.67v-.35a.82.82,0,0,0-.11-.54c-.1-.1-.24-.12-.49-.12h-.72v1h-.67V8.74h1.54a1.59,1.59,0,0,1,.81.14.65.65,0,0,1,.34.62" transform="translate(0 0)"/><polygon class="cls-8" points="13.1 11.54 10.87 11.54 10.87 8.74 13.1 8.74 13.1 9.33 11.54 9.33 11.54 9.83 13.06 9.83 13.06 10.4 11.54 10.4 11.54 10.96 13.1 10.96 13.1 11.54"/><polygon class="cls-9" points="10.37 11.54 9.69 11.54 9.68 9.35 8.71 11.54 8.13 11.54 7.15 9.35 7.15 11.54 5.79 11.54 5.54 10.92 4.14 10.92 3.88 11.54 3.16 11.54 4.35 8.74 5.35 8.74 6.49 11.39 6.49 8.74 7.58 8.74 8.45 10.64 9.26 8.74 10.37 8.74 10.37 11.54"/><path class="cls-5" d="M15.38,9.89a.65.65,0,0,1-.33.06h-.81V9.33h.82a.69.69,0,0,1,.32,0,.26.26,0,0,1,.14.25.29.29,0,0,1-.14.27" transform="translate(0 0)"/><polygon class="cls-5" points="5.29 10.33 4.84 9.22 4.38 10.33 5.29 10.33"/></g></g></g></g></g></svg>