<?xml version="1.0" encoding="utf-8"?>
<!-- Generator: Adobe Illustrator 20.1.0, SVG Export Plug-In . SVG Version: 6.00 Build 0)  -->
<svg version="1.1" id="Layer_1" xmlns="http://www.w3.org/2000/svg" xmlns:xlink="http://www.w3.org/1999/xlink" x="0px" y="0px"
	 viewBox="0 0 9.8 10.4" style="enable-background:new 0 0 9.8 10.4;" xml:space="preserve">
<style type="text/css">
	.st0{fill:#36A9E1;}
</style>
<title>ar-reply</title>
<g id="Layer_2">
	<g id="Basework">
		<path class="st0" d="M9.4,10.5c-0.2,0-0.4-0.2-0.4-0.4V6.8c0-1.9-1.5-3.4-3.4-3.4h-5C0.4,3.4,0.2,3.2,0.2,3s0.2-0.4,0.4-0.4h5
			c2.3,0,4.2,1.9,4.1,4.2v3.3C9.8,10.3,9.6,10.5,9.4,10.5z"/>
		<path class="st0" d="M3,5.7c-0.1,0-0.2,0-0.2-0.1L0.1,3.3C0,3.2,0,2.9,0.1,2.8l2.3-2.6C2.6,0,2.8,0,3,0.1c0.2,0.1,0.2,0.4,0,0.5
			L0.9,3l2.4,2.1c0.2,0.1,0.2,0.4,0,0.5C3.2,5.7,3.1,5.7,3,5.7z"/>
	</g>
</g>
</svg>
