<svg xmlns="http://www.w3.org/2000/svg" viewBox="0 0 24 24"><defs><style>.cls-1{fill:#8cc63f;}.cls-2{fill:#fff;}</style></defs><title>Asset 9</title><g id="Layer_2" data-name="Layer 2"><g id="Basework"><circle class="cls-1" cx="12" cy="12" r="12"/><g id="locked"><g id="_381-locked.png" data-name="381-locked.png"><path class="cls-2" d="M16.51,10.57H16V8.72h0a3.71,3.71,0,1,0-7.43,0h0v1.86H8.16a.93.93,0,0,0-.93.93v5.57a.93.93,0,0,0,.93.93h8.36a.93.93,0,0,0,.93-.93V11.5A.93.93,0,0,0,16.51,10.57ZM12.8,14.16v1.52h-.93V14.16a.93.93,0,1,1,.93,0Zm1.86-5.44v1.86H10V8.72h0a2.32,2.32,0,1,1,4.64,0Z"/></g></g></g></g></svg>