<?xml version="1.0" encoding="utf-8"?>
<!-- Generator: Adobe Illustrator 20.1.0, SVG Export Plug-In . SVG Version: 6.00 Build 0)  -->
<svg version="1.1" id="Layer_1" xmlns="http://www.w3.org/2000/svg" xmlns:xlink="http://www.w3.org/1999/xlink" x="0px" y="0px"
	 viewBox="0 0 17.8 17.8" style="enable-background:new 0 0 17.8 17.8;" xml:space="preserve">
<style type="text/css">
	.st0{fill:#28B2FE;}
</style>
<title>checked</title>
<path class="st0" d="M15.6,17.8H2.1c-1.1,0-2.1-1-2.1-2.2V2.1C0,1,1,0,2.1,0h13.5c1.2,0,2.1,0.9,2.1,2.1v13.5
	C17.8,16.8,16.8,17.8,15.6,17.8z M2.5,1.3c-0.8,0-1.3,0.6-1.3,1.3v12.7c0,0.8,0.6,1.3,1.3,1.3h12.7c0.8,0,1.3-0.6,1.3-1.3V2.5
	c0-0.8-0.6-1.3-1.3-1.3L2.5,1.3L2.5,1.3z"/>
<path class="st0" d="M12.9,4.1c-0.3,0-0.5,0.1-0.7,0.3l-5.6,6L4.8,8.5l0,0C4.6,8.4,4.3,8.3,4.1,8.3c-0.5,0-1,0.4-1,0.9
	c0,0.2,0.1,0.4,0.2,0.5l0,0L6,13.5c0.2,0.3,0.5,0.4,0.8,0.4s0.6-0.1,0.8-0.4l6.2-7.9C13.9,5.4,14,5.2,14,5
	C13.9,4.5,13.4,4.1,12.9,4.1z"/>
</svg>
