<svg xmlns="http://www.w3.org/2000/svg" viewBox="0 0 17 14.8"><defs><style>.cls-1{fill:#666;}</style></defs><title>download</title><g id="Layer_2" data-name="Layer 2"><g id="Basework"><g id="Download"><path class="cls-1" d="M12.67,3.21A4.74,4.74,0,0,0,7.93,0,5.33,5.33,0,0,0,2.54,5.24,3.84,3.84,0,0,0,0,8.93a3.78,3.78,0,0,0,3.58,3.85h.47a.53.53,0,1,0,0-1.06H3.58A2.72,2.72,0,0,1,1,8.93,2.76,2.76,0,0,1,3.16,6.18l.48-.08,0-.49h0A4.25,4.25,0,0,1,7.93,1.06a3.65,3.65,0,0,1,3.85,2.81l.11.37h.38A3.76,3.76,0,0,1,16,7.89c0,1.81-1.2,3.83-3,3.83h-.15a.53.53,0,1,0,0,1.06h0C15.47,12.71,17,10.17,17,7.89A4.76,4.76,0,0,0,12.67,3.21Zm-1.94,8.56a.37.37,0,0,0-.54,0L9,13.06V7.71A.53.53,0,0,0,8,7.71v5.36L6.84,11.81a.37.37,0,0,0-.54,0l-.13.07a.41.41,0,0,0,0,.56l1.92,2.12h0l.13.14a.37.37,0,0,0,.54,0l.13-.14h0l2-2.16a.33.33,0,0,0,0-.5Z"/></g></g></g></svg>