<?xml version="1.0" encoding="utf-8"?>
<!-- Generator: Adobe Illustrator 20.1.0, SVG Export Plug-In . SVG Version: 6.00 Build 0)  -->
<svg version="1.1" id="Layer_1" xmlns="http://www.w3.org/2000/svg" xmlns:xlink="http://www.w3.org/1999/xlink" x="0px" y="0px"
	 viewBox="0 0 26.7 28.5" style="enable-background:new 0 0 26.7 28.5;" xml:space="preserve">
<style type="text/css">
	.st0{fill:#B3B3B3;}
</style>
<title>edit</title>
<polygon class="st0" points="0.5,28.1 0.2,28.1 1.9,18.8 2,18.8 13,6.8 16.6,10.1 16.4,10.3 13,7.2 2.2,18.9 "/>
<path class="st0" d="M21.6,12.7L21.6,12.7l-7.6-7l1.8-2l0.1,0.1l7.5,6.9L21.6,12.7z M14.3,5.7l7.2,6.6l1.5-1.6l-7.3-6.6L14.3,5.7z"
	/>
<polygon class="st0" points="0.5,28.3 0.4,28.1 9.4,25.5 20.2,13.7 16.8,10.6 16.9,10.4 20.5,13.7 20.4,13.8 9.6,25.8 "/>
<path class="st0" d="M21,6.2l-4.1-3.7l1.7-1.9c0.9-0.6,2-0.4,2.7,0.4c1.5,1.3,2.6,2.3,2.6,2.3l-0.2,0.2c0,0-1.1-1-2.6-2.3
	c-0.6-0.7-1.6-0.8-2.4-0.3l-1.5,1.7L21.2,6L21,6.2z"/>
<path class="st0" d="M24.6,9.4l-4.1-3.7l0.2-0.2l3.9,3.6l1.5-1.7c0.4-0.8,0.2-1.8-0.6-2.3c-1.5-1.4-2.6-2.4-2.6-2.4l0.2-0.2
	c0,0,1.1,1,2.6,2.4c0.8,0.6,1.1,1.7,0.6,2.7l0,0L24.6,9.4z"/>
<polygon class="st0" points="9.9,25.2 2.5,18.4 2.7,18.2 10.1,25 "/>
<polygon class="st0" points="5.4,20.1 5.2,19.9 14.8,9.5 15,9.6 "/>
<polygon class="st0" points="8.3,22.7 8.1,22.5 17.7,12.1 17.8,12.3 "/>
<rect x="4" y="25.1" transform="matrix(0.2425 -0.9702 0.9702 0.2425 -22.5376 24.0548)" class="st0" width="0.2" height="2.8"/>
<polygon class="st0" points="2.4,26 1.2,22.8 1.5,22.8 2.7,25.9 "/>
</svg>
