<svg xmlns="http://www.w3.org/2000/svg" viewBox="0 0 20.82 13.15"><defs><style>.cls-1{fill:#fff;}</style></defs><title>envelope</title><g id="Layer_2" data-name="Layer 2"><g id="Basework"><g id="mail"><path class="cls-1" d="M19.72,0H1.09A1.1,1.1,0,0,0,0,1.09v1l.55.29.55.28,9.31,4.9,9.31-4.9.55-.28.55-.29v-1A1.11,1.11,0,0,0,19.72,0Z"/><polygon class="cls-1" points="1.09 9.56 5.82 6.42 1.09 3.93 0.55 3.65 0 3.36 0 10.29 0.55 9.93 1.09 9.56"/><path class="cls-1" d="M19.72,10.89,13.89,7,10.67,8.7a.53.53,0,0,1-.52,0L6.92,7,1.09,10.89l-.55.37L0,11.61v.44a1.1,1.1,0,0,0,1.09,1.09H19.72a1.1,1.1,0,0,0,1.09-1.09v-.44l-.55-.36Z"/><polygon class="cls-1" points="19.72 3.93 15 6.42 19.72 9.56 20.27 9.93 20.81 10.29 20.81 3.36 20.27 3.65 19.72 3.93"/></g></g></g></svg>