<svg xmlns="http://www.w3.org/2000/svg" viewBox="0 0 18.33 17.34"><defs><style>.cls-1{fill:#fff;}</style></defs><title>g+</title><g id="Layer_2" data-name="Layer 2"><g id="Basework"><g id="Google_" data-name="Google +"><path class="cls-1" d="M18.33,8.45h-2.4v2.34h-.1v.08H14.46V8.45H12V7.09h2.44V4.68h1.47V7.08h2.4ZM8.3.82a3.11,3.11,0,0,1,.49.39,4.14,4.14,0,0,1,.51.66,4.38,4.38,0,0,1,.42.87A4.06,4.06,0,0,1,9.86,3.9a3.41,3.41,0,0,1-.54,2,6.13,6.13,0,0,1-.54.66l-.68.61a3.19,3.19,0,0,0-.38.48,1.06,1.06,0,0,0-.2.64.85.85,0,0,0,.21.59,4.57,4.57,0,0,0,.35.39l.78.63a7.79,7.79,0,0,1,1.27,1.3A3.29,3.29,0,0,1,10.66,13,3.81,3.81,0,0,1,9.19,16a6.68,6.68,0,0,1-4.4,1.37,5.56,5.56,0,0,1-3.59-1A2.76,2.76,0,0,1,0,14.09a3.19,3.19,0,0,1,.39-1.41,3.35,3.35,0,0,1,1.37-1.36,7.15,7.15,0,0,1,2.34-.84,17.76,17.76,0,0,1,2-.2,4.86,4.86,0,0,1-.44-.69,1.58,1.58,0,0,1-.23-.86,1.28,1.28,0,0,1,.09-.5l.14-.39a6.5,6.5,0,0,1-.74,0A3.52,3.52,0,0,1,2.14,6.73a3.4,3.4,0,0,1-1-2.43,4.15,4.15,0,0,1,1.42-3,5,5,0,0,1,2-1,9.88,9.88,0,0,1,2-.21h4.58L9.71.82Zm-3,10.12a9.89,9.89,0,0,0-1.45.32l-.49.2a3,3,0,0,0-.65.41,2.4,2.4,0,0,0-.54.69,2,2,0,0,0-.25,1,2.34,2.34,0,0,0,1.09,2,4.75,4.75,0,0,0,2.84.8,3.94,3.94,0,0,0,2.47-.71,2.15,2.15,0,0,0,.83-1.74,2.21,2.21,0,0,0-.57-1.51,13.79,13.79,0,0,0-1.88-1.5l-.51,0A5.9,5.9,0,0,0,5.32,10.95ZM7.23,2.24a3,3,0,0,0-.85-1.07A2.2,2.2,0,0,0,5.13.75a2,2,0,0,0-1.55.75,2.8,2.8,0,0,0-.5,1.69,5.38,5.38,0,0,0,.73,2.57,3.52,3.52,0,0,0,.91,1.06A2,2,0,0,0,6,7.26,2.15,2.15,0,0,0,7.5,6.61a2.36,2.36,0,0,0,.37-.89,7.26,7.26,0,0,0,0-.77A6,6,0,0,0,7.23,2.24Z"/></g></g></g></svg>