<svg xmlns="http://www.w3.org/2000/svg" viewBox="0 0 15.39 14.57"><defs><style>.cls-1{fill:#fff;}</style></defs><title>google</title><g id="Layer_2" data-name="Layer 2"><g id="Basework"><path class="cls-1" d="M15.39,7.09h-2v2H13.3v.07H12.15v-2h-2V6h2v-2h1.23v2h2ZM7,.69A2.62,2.62,0,0,1,7.38,1a3.48,3.48,0,0,1,.43.55,3.68,3.68,0,0,1,.35.73,3.41,3.41,0,0,1,.13,1,2.86,2.86,0,0,1-.46,1.64,5.15,5.15,0,0,1-.46.55L6.8,6a2.68,2.68,0,0,0-.32.4.89.89,0,0,0-.17.54.71.71,0,0,0,.18.49,3.84,3.84,0,0,0,.29.33l.65.53A6.54,6.54,0,0,1,8.5,9.37,2.77,2.77,0,0,1,9,11a3.2,3.2,0,0,1-1.23,2.46A5.61,5.61,0,0,1,4,14.57a4.67,4.67,0,0,1-3-.86,2.31,2.31,0,0,1-1-1.87,2.68,2.68,0,0,1,.33-1.18A2.81,2.81,0,0,1,1.48,9.51a6,6,0,0,1,2-.71,14.91,14.91,0,0,1,1.69-.17,4.08,4.08,0,0,1-.37-.58,1.32,1.32,0,0,1-.19-.72,1.08,1.08,0,0,1,.07-.42l.12-.33a5.46,5.46,0,0,1-.62,0,3,3,0,0,1-2.34-1,2.86,2.86,0,0,1-.84-2A3.48,3.48,0,0,1,2.15,1.05,4.19,4.19,0,0,1,3.86.18,8.3,8.3,0,0,1,5.5,0H9.34L8.16.69Zm-2.5,8.5a8.3,8.3,0,0,0-1.22.27l-.41.17a2.52,2.52,0,0,0-.54.35,2,2,0,0,0-.45.58,1.72,1.72,0,0,0-.21.88,2,2,0,0,0,.92,1.66,4,4,0,0,0,2.39.67A3.31,3.31,0,0,0,7,13.17a1.81,1.81,0,0,0,.7-1.47,1.86,1.86,0,0,0-.48-1.27A11.58,11.58,0,0,0,5.65,9.17l-.43,0A5,5,0,0,0,4.47,9.19Zm1.6-7.32A2.54,2.54,0,0,0,5.35,1a1.85,1.85,0,0,0-1-.35A1.69,1.69,0,0,0,3,1.26a2.35,2.35,0,0,0-.42,1.42A4.52,4.52,0,0,0,3.2,4.84,3,3,0,0,0,4,5.73,1.69,1.69,0,0,0,5,6.1,1.8,1.8,0,0,0,6.3,5.55a2,2,0,0,0,.31-.75,6.1,6.1,0,0,0,0-.65A5,5,0,0,0,6.07,1.88Z"/></g></g></svg>