<svg xmlns="http://www.w3.org/2000/svg" viewBox="0 0 10 12.73"><defs><style>.cls-1{fill:#b3b3b3;}</style></defs><title>lock</title><g id="Layer_2" data-name="Layer 2"><g id="Basework"><g id="locked"><g id="_381-locked.png" data-name="381-locked.png"><path class="cls-1" d="M9.09,5.46H8.64V3.64h0a3.64,3.64,0,1,0-7.27,0h0V5.46H.91A.91.91,0,0,0,0,6.36v5.46a.91.91,0,0,0,.91.91H9.09a.91.91,0,0,0,.91-.91V6.36A.91.91,0,0,0,9.09,5.46ZM5.46,9v1.49H4.55V9a.91.91,0,1,1,.91,0ZM7.27,3.64V5.46H2.73V3.64h0a2.27,2.27,0,1,1,4.55,0Z"/></g></g></g></g></svg>