<svg xmlns="http://www.w3.org/2000/svg" xmlns:xlink="http://www.w3.org/1999/xlink" viewBox="0 0 36.79 22.04"><defs><style>.cls-1{fill:none;}.cls-2{clip-path:url(#clip-path);}.cls-3{fill:#ec8223;}.cls-4{fill:#e31e25;}.cls-5,.cls-6{fill:#203464;}.cls-6,.cls-8{fill-rule:evenodd;}.cls-7,.cls-8{fill:#fff;}</style><clipPath id="clip-path" transform="translate(0 0)"><rect class="cls-1" width="36.79" height="22.04"/></clipPath></defs><title>master-card</title><g id="Layer_2" data-name="Layer 2"><g id="Basework"><g id="Ilustración_11" data-name="Ilustración 11"><g class="cls-2"><g class="cls-2"><path class="cls-3" d="M14.74,11a11,11,0,1,1,11,11,11,11,0,0,1-11-11" transform="translate(0 0)"/><path class="cls-4" d="M18.38,2.82a9.46,9.46,0,0,0-1,1h2a6.37,6.37,0,0,1,.92,1.27H16.46s-.37.58-.62,1.08h5.07a7.55,7.55,0,0,1,.56,1.33H15.31a9.54,9.54,0,0,0-.3,1h6.75a11.44,11.44,0,0,1-.29,6H15.34a7.93,7.93,0,0,0,.42,1.09H21c-.21.44-.52,1-.7,1.28H16.47a9.13,9.13,0,0,0,.74,1h2.38a8.66,8.66,0,0,1-1.2,1.25h0a11,11,0,1,1,0-16.4" transform="translate(0 0)"/><path class="cls-5" d="M12.95,9.46l-.18,1-1,0s-.48.13-.48.33.36.46.89.69.56.86.51,1.3-.13,1.33-1.68,1.37A4,4,0,0,1,9.66,14l.2-1s1.14.31,1.4.13.56-.48.08-.69-1.27-.53-1.27-1.35a1.48,1.48,0,0,1,.84-1.5,3.9,3.9,0,0,1,2-.08" transform="translate(0 0)"/><polygon class="cls-5" points="5.3 13.99 4.18 13.99 4.83 10.13 3.44 13.97 2.67 13.97 2.48 9.98 1.8 13.99 0.74 13.99 1.74 8.1 3.03 8.1 3.48 11.49 4.98 8.1 6.31 8.1 5.3 13.99"/><path class="cls-5" d="M14,14.08a1.1,1.1,0,0,1-.78-.24,1,1,0,0,1-.24-.73,1.92,1.92,0,0,1,0-.24c0-.08,0-.18,0-.28l.68-3.78h1.05l-.15.74h1l-.17.93h-1l-.27,1.61-.05.33a1.93,1.93,0,0,0,0,.28.42.42,0,0,0,.1.33.44.44,0,0,0,.31.09l.21,0a1.22,1.22,0,0,0,.22-.09H15l-.17.95a2,2,0,0,1-.37.09,2.58,2.58,0,0,1-.47,0" transform="translate(0 0)"/><path class="cls-5" d="M21.51,10.79a.57.57,0,0,0-.85.22l-.51,3H19.11l.76-4.44h1.05l0,.36a1.15,1.15,0,0,1,1-.35,4.79,4.79,0,0,0-.37,1.24" transform="translate(0 0)"/><path class="cls-5" d="M23.51,14.11a1.66,1.66,0,0,1-1.36-.59,2.59,2.59,0,0,1-.48-1.69,5.54,5.54,0,0,1,.21-1.57A4.05,4.05,0,0,1,22.46,9a2.71,2.71,0,0,1,.87-.78A2.12,2.12,0,0,1,24.4,8a2.76,2.76,0,0,1,.84.13c.13,0,.37.16.37.16l-.24,1.4A1.84,1.84,0,0,0,25,9.3a1.18,1.18,0,0,0-.64-.19,1.23,1.23,0,0,0-1.07.71,3.43,3.43,0,0,0-.43,1.81,1.77,1.77,0,0,0,.23,1,.82.82,0,0,0,.68.31,1.43,1.43,0,0,0,.76-.21,3.41,3.41,0,0,0,.33-.24l-.24,1.34-.19.08-.39.13a2.68,2.68,0,0,1-.51,0" transform="translate(0 0)"/><path class="cls-5" d="M7.9,13.84l-.12.08-.3.14a1.62,1.62,0,0,1-.4,0,.83.83,0,0,1-.66-.31A1.24,1.24,0,0,1,6.15,13a2,2,0,0,1,.18-.9,1.39,1.39,0,0,1,.55-.58,2.36,2.36,0,0,1,.8-.3l.22,0a5.55,5.55,0,0,1,.8-.09.3.3,0,0,1,0-.08.49.49,0,0,0,0-.12.43.43,0,0,0-.19-.4A1.23,1.23,0,0,0,8,10.38H7.9a1.9,1.9,0,0,0-.52.12,4.48,4.48,0,0,0-.47.2h-.1L7,9.64a3.49,3.49,0,0,1,.57-.14,2,2,0,0,1,.37-.06,2.29,2.29,0,0,1,.4,0,1.93,1.93,0,0,1,1.13.27,1,1,0,0,1,.36.85,1.84,1.84,0,0,1,0,.2l0,.22-.51,3h-1l.08-.47L8,13.73l-.14.11M7.9,12a1.35,1.35,0,0,0-.29.09.6.6,0,0,0-.27.25.78.78,0,0,0-.1.43.38.38,0,0,0,.12.32.62.62,0,0,0,.37.09.44.44,0,0,0,.17,0l.17-.06a2.36,2.36,0,0,0,.33-.25l.16-.95c-.18,0-.37,0-.52.08L7.9,12" transform="translate(0 0)"/><path class="cls-5" d="M17,10.32a.63.63,0,0,0-.37.21,1.6,1.6,0,0,0-.34.66h1.42s0-.08,0-.13,0-.08,0-.12a.74.74,0,0,0-.15-.49.52.52,0,0,0-.41-.16l-.17,0m0,2.79h.16a1.41,1.41,0,0,0,.65-.15,2.91,2.91,0,0,0,.53-.35h.12l-.2,1.15a2.51,2.51,0,0,1-.64.27,2.6,2.6,0,0,1-.62.1h-.1a1.64,1.64,0,0,1-1.3-.51,2,2,0,0,1-.45-1.38,4,4,0,0,1,.15-1.11,2.92,2.92,0,0,1,.43-.9,2.09,2.09,0,0,1,.67-.59,2.21,2.21,0,0,1,.6-.2h.29a1.43,1.43,0,0,1,1.11.4A1.68,1.68,0,0,1,18.77,11a3.76,3.76,0,0,1,0,.53c0,.16-.06.34-.1.51H16.19v.09a1,1,0,0,0,.24.72.86.86,0,0,0,.58.26" transform="translate(0 0)"/><path class="cls-5" d="M26.89,13.84l-.13.08a2.15,2.15,0,0,1-.31.14,1.6,1.6,0,0,1-.39,0,.84.84,0,0,1-.67-.31,1.24,1.24,0,0,1-.25-.82,2,2,0,0,1,.18-.9,1.43,1.43,0,0,1,.54-.58,2.33,2.33,0,0,1,.81-.3l.22,0a5.38,5.38,0,0,1,.79-.09s0,0,0-.08,0-.07,0-.12a.45.45,0,0,0-.19-.4,1.23,1.23,0,0,0-.58-.11h-.05a1.77,1.77,0,0,0-.52.12,4.66,4.66,0,0,0-.47.2h-.1l.15-1.05a3.4,3.4,0,0,1,.57-.14,2,2,0,0,1,.37-.06,2.23,2.23,0,0,1,.4,0,1.93,1.93,0,0,1,1.13.27,1,1,0,0,1,.36.85,1.62,1.62,0,0,1,0,.2l0,.22-.51,3h-1l.08-.47-.24.21Zm0-1.84a1.63,1.63,0,0,0-.3.09.66.66,0,0,0-.27.25.86.86,0,0,0-.1.43.36.36,0,0,0,.13.32.59.59,0,0,0,.36.09.48.48,0,0,0,.18,0l.16-.06a1.92,1.92,0,0,0,.33-.25l.17-.95L27,12l-.12,0" transform="translate(0 0)"/><path class="cls-5" d="M31.33,10.79a.57.57,0,0,0-.85.22L30,14H28.93l.76-4.44h1.05l0,.36a1.15,1.15,0,0,1,1-.35,4.72,4.72,0,0,0-.37,1.24" transform="translate(0 0)"/><path class="cls-6" d="M33.41,10.5l-.15.09a1.22,1.22,0,0,0-.35.4,2.38,2.38,0,0,0-.19.6,3.24,3.24,0,0,0-.08.7,1,1,0,0,0,.14.58.48.48,0,0,0,.42.19.47.47,0,0,0,.21,0l.1,0a1.76,1.76,0,0,0,.3-.2l.37-2.19a.8.8,0,0,0-.23-.09.62.62,0,0,0-.23,0,.84.84,0,0,0-.31.06m0,3.26a1.77,1.77,0,0,1-.26.2,1.46,1.46,0,0,1-.25.12,1.21,1.21,0,0,1-.31,0,.9.9,0,0,1-.77-.41,2.2,2.2,0,0,1-.28-1.19,4.39,4.39,0,0,1,.15-1.19,3.59,3.59,0,0,1,.41-1,2.19,2.19,0,0,1,.61-.66,1.33,1.33,0,0,1,.7-.25h0a1.39,1.39,0,0,1,.47.07,1.54,1.54,0,0,1,.41.24l.23-1.55h1.05l-1,5.82H33.59l.08-.46-.26.23" transform="translate(0 0)"/><path class="cls-7" d="M13.16,9.3l-.18,1-1,0s-.48.13-.48.33.36.46.89.69.56.86.51,1.3S12.8,13.91,11.25,14a4,4,0,0,1-1.37-.15l.2-1s1.14.31,1.4.13.56-.48.08-.69-1.27-.53-1.27-1.35a1.47,1.47,0,0,1,.84-1.5,3.89,3.89,0,0,1,2-.08" transform="translate(0 0)"/><polygon class="cls-7" points="5.52 13.84 4.39 13.84 5.05 9.97 3.66 13.81 2.88 13.81 2.69 9.82 2.01 13.84 0.95 13.84 1.95 7.94 3.24 7.94 3.69 11.33 5.19 7.94 6.52 7.94 5.52 13.84"/><path class="cls-7" d="M14.16,13.92a1.09,1.09,0,0,1-.78-.24,1,1,0,0,1-.24-.73,2,2,0,0,1,0-.24c0-.08,0-.18,0-.28l.68-3.77h1.05l-.15.74h1l-.17.93h-1l-.27,1.61-.05.33a2,2,0,0,0,0,.28.42.42,0,0,0,.1.33.44.44,0,0,0,.3.09l.21,0a1.21,1.21,0,0,0,.22-.09h.09l-.17.95a1.91,1.91,0,0,1-.37.09,2.7,2.7,0,0,1-.47,0" transform="translate(0 0)"/><path class="cls-7" d="M21.73,10.63a.57.57,0,0,0-.85.22l-.51,3H19.32l.76-4.44h1.05l0,.36a1.14,1.14,0,0,1,1-.35,4.83,4.83,0,0,0-.37,1.24" transform="translate(0 0)"/><path class="cls-7" d="M23.72,14a1.65,1.65,0,0,1-1.36-.59,2.59,2.59,0,0,1-.48-1.69,5.53,5.53,0,0,1,.21-1.57,4.09,4.09,0,0,1,.58-1.22,2.73,2.73,0,0,1,.87-.78,2.1,2.1,0,0,1,1.06-.28,2.75,2.75,0,0,1,.84.13c.13,0,.37.16.37.16l-.24,1.4a1.82,1.82,0,0,0-.37-.37A1.18,1.18,0,0,0,24.55,9a1.23,1.23,0,0,0-1.07.71,3.44,3.44,0,0,0-.43,1.81,1.75,1.75,0,0,0,.24,1,.82.82,0,0,0,.68.31,1.46,1.46,0,0,0,.76-.21l.33-.24-.25,1.34-.19.08c-.15.06-.28.09-.39.13a2.74,2.74,0,0,1-.51,0" transform="translate(0 0)"/><path class="cls-7" d="M8.11,13.68,8,13.76l-.3.14a1.66,1.66,0,0,1-.4,0,.83.83,0,0,1-.66-.31,1.25,1.25,0,0,1-.26-.82,2,2,0,0,1,.18-.9,1.39,1.39,0,0,1,.55-.58,2.37,2.37,0,0,1,.8-.3l.22,0a5.71,5.71,0,0,1,.8-.09.32.32,0,0,1,0-.08.48.48,0,0,0,0-.12.43.43,0,0,0-.19-.4,1.25,1.25,0,0,0-.58-.11H8.11a1.92,1.92,0,0,0-.52.12,4.62,4.62,0,0,0-.47.2H7l.16-1.05a3.5,3.5,0,0,1,.57-.14,2,2,0,0,1,.37-.06,2.24,2.24,0,0,1,.4,0,1.92,1.92,0,0,1,1.13.27,1,1,0,0,1,.36.85,1.84,1.84,0,0,1,0,.2l0,.22-.51,3h-1l.08-.47-.24.21-.14.11m0-1.84a1.33,1.33,0,0,0-.29.09.59.59,0,0,0-.27.25.77.77,0,0,0-.1.43.38.38,0,0,0,.12.32.63.63,0,0,0,.37.09.43.43,0,0,0,.17,0l.17-.06a2.46,2.46,0,0,0,.33-.25l.16-.95c-.18,0-.37,0-.52.08l-.13,0" transform="translate(0 0)"/><path class="cls-7" d="M17.22,10.16a.64.64,0,0,0-.37.21,1.62,1.62,0,0,0-.34.66h1.42s0-.08,0-.13,0-.08,0-.12a.74.74,0,0,0-.15-.49.52.52,0,0,0-.41-.16l-.17,0m0,2.79h.16A1.41,1.41,0,0,0,18,12.8a2.85,2.85,0,0,0,.53-.35h.12l-.2,1.15a2.49,2.49,0,0,1-.64.27,2.62,2.62,0,0,1-.62.09h-.1a1.64,1.64,0,0,1-1.3-.51,2,2,0,0,1-.45-1.38A4,4,0,0,1,15.53,11a2.91,2.91,0,0,1,.43-.9,2.1,2.1,0,0,1,.67-.59,2.23,2.23,0,0,1,.6-.2h.29a1.43,1.43,0,0,1,1.11.4A1.69,1.69,0,0,1,19,10.83a3.68,3.68,0,0,1,0,.53c0,.16-.06.34-.1.51H16.41V12a1,1,0,0,0,.24.72.86.86,0,0,0,.57.26" transform="translate(0 0)"/><path class="cls-7" d="M27.1,13.68l-.13.08a2.05,2.05,0,0,1-.3.14,1.65,1.65,0,0,1-.39,0,.84.84,0,0,1-.67-.31,1.24,1.24,0,0,1-.25-.82,2,2,0,0,1,.18-.9,1.42,1.42,0,0,1,.54-.58,2.34,2.34,0,0,1,.81-.3l.22,0a5.61,5.61,0,0,1,.79-.09.78.78,0,0,0,0-.08s0-.07,0-.12a.45.45,0,0,0-.19-.4,1.24,1.24,0,0,0-.57-.11H27.1a1.78,1.78,0,0,0-.52.12,4.45,4.45,0,0,0-.47.2H26l.15-1.05a3.39,3.39,0,0,1,.58-.14,2,2,0,0,1,.36-.06,2.2,2.2,0,0,1,.4,0,1.93,1.93,0,0,1,1.13.27,1,1,0,0,1,.36.85,2,2,0,0,1,0,.2c0,.08,0,.15,0,.22l-.51,3h-1l.08-.47-.24.21Zm0-1.84a1.58,1.58,0,0,0-.29.09.63.63,0,0,0-.27.25.84.84,0,0,0-.1.43.36.36,0,0,0,.13.32.6.6,0,0,0,.36.09.47.47,0,0,0,.17,0l.16-.06a2.06,2.06,0,0,0,.33-.25l.17-.95c-.19,0-.37,0-.53.08l-.12,0" transform="translate(0 0)"/><path class="cls-7" d="M31.55,10.63a.57.57,0,0,0-.85.22l-.51,3H29.14l.76-4.44H31l0,.36a1.14,1.14,0,0,1,1-.35,4.73,4.73,0,0,0-.37,1.24" transform="translate(0 0)"/><path class="cls-8" d="M33.62,10.34l-.15.09a1.19,1.19,0,0,0-.35.4,2.21,2.21,0,0,0-.19.6,3.17,3.17,0,0,0-.08.7,1,1,0,0,0,.14.58.49.49,0,0,0,.42.19.45.45,0,0,0,.21,0l.1,0a1.89,1.89,0,0,0,.3-.2l.37-2.19a.77.77,0,0,0-.23-.09.63.63,0,0,0-.24,0,.84.84,0,0,0-.3.06m0,3.26a1.92,1.92,0,0,1-.26.2,1.53,1.53,0,0,1-.25.12,1.21,1.21,0,0,1-.31,0,.9.9,0,0,1-.77-.41,2.2,2.2,0,0,1-.28-1.19,4.32,4.32,0,0,1,.15-1.19,3.57,3.57,0,0,1,.41-1,2.18,2.18,0,0,1,.61-.66,1.34,1.34,0,0,1,.7-.25h0a1.4,1.4,0,0,1,.47.07,1.56,1.56,0,0,1,.41.24L34.77,8h1.05l-1,5.82H33.8l.08-.46-.26.23" transform="translate(0 0)"/></g></g></g></g></g></svg>