<svg xmlns="http://www.w3.org/2000/svg" viewBox="0 0 14.74 18.69"><defs><style>.cls-1{fill:#cf1717;}</style></defs><title>p</title><g id="Layer_2" data-name="Layer 2"><g id="Basework"><path class="cls-1" d="M8.84,13.51a3.15,3.15,0,0,1-2.67-1.34s-.64,2.47-.77,2.95a11.4,11.4,0,0,1-2,3.51.15.15,0,0,1-.26-.06,11.8,11.8,0,0,1,0-4.08L4.6,8.64a4,4,0,0,1-.35-1.7c0-1.59.94-2.78,2.11-2.78A1.45,1.45,0,0,1,7.84,5.78a22.66,22.66,0,0,1-1,3.81A1.67,1.67,0,0,0,8.6,11.65c2.07,0,3.47-2.61,3.47-5.71,0-2.35-1.61-4.11-4.55-4.11A5.13,5.13,0,0,0,2.13,7a3.05,3.05,0,0,0,.72,2.1.52.52,0,0,1,.16.6c-.05.2-.17.67-.22.86a.38.38,0,0,1-.55.27C.71,10.2,0,8.55,0,6.71,0,3.66,2.62,0,7.82,0,12,0,14.74,3,14.74,6.15,14.74,10.36,12.35,13.51,8.84,13.51Z"/></g></g></svg>