<svg xmlns="http://www.w3.org/2000/svg" viewBox="0 0 98 23.78"><defs><style>.cls-1{fill:#009bde;}.cls-2{fill:#002f87;}.cls-3{fill:#022169;}</style></defs><title>paypal</title><g id="Layer_2" data-name="Layer 2"><g id="Basework"><path class="cls-1" d="M76.09,10.36c-.29,1.93-1.77,1.93-3.2,1.93h-.81l.57-3.61a.45.45,0,0,1,.44-.38h.37c1,0,1.89,0,2.36.55a1.8,1.8,0,0,1,.26,1.5Zm-.62-5H70.08a.75.75,0,0,0-.74.63L67.16,19.77a.45.45,0,0,0,.44.52h2.76a.52.52,0,0,0,.52-.44l.62-3.92a.75.75,0,0,1,.74-.63H74c3.55,0,5.6-1.72,6.13-5.12a4.15,4.15,0,0,0-.69-3.48,5,5,0,0,0-3.93-1.38Z"/><path class="cls-2" d="M37.66,10.36c-.29,1.93-1.77,1.93-3.2,1.93h-.81l.57-3.61a.45.45,0,0,1,.44-.38H35c1,0,1.89,0,2.36.55a1.8,1.8,0,0,1,.26,1.5Zm-.62-5H31.65a.75.75,0,0,0-.74.63L28.73,19.77a.45.45,0,0,0,.44.52h2.57a.75.75,0,0,0,.74-.63l.59-3.73a.75.75,0,0,1,.74-.63h1.71c3.55,0,5.6-1.72,6.13-5.12A4.15,4.15,0,0,0,41,6.69,5,5,0,0,0,37,5.32Z"/><path class="cls-2" d="M49.55,15.32a2.88,2.88,0,0,1-2.91,2.46,2,2,0,0,1-2.14-2.51,2.89,2.89,0,0,1,2.89-2.48,2.17,2.17,0,0,1,1.72.7,2.22,2.22,0,0,1,.44,1.82Zm3.6-5H50.56a.45.45,0,0,0-.44.38L50,11.4l-.18-.26a3.67,3.67,0,0,0-3-1.08A5.93,5.93,0,0,0,41,15.25a4.87,4.87,0,0,0,1,4,4,4,0,0,0,3.25,1.31A4.94,4.94,0,0,0,48.8,19l-.12.72a.45.45,0,0,0,.44.52h2.32a.75.75,0,0,0,.74-.63l1.39-8.83a.45.45,0,0,0-.44-.52Z"/><path class="cls-1" d="M88,15.32a2.88,2.88,0,0,1-2.91,2.46,2,2,0,0,1-2.14-2.51,2.89,2.89,0,0,1,2.89-2.48,2.17,2.17,0,0,1,1.72.7A2.22,2.22,0,0,1,88,15.32Zm3.6-5H89a.45.45,0,0,0-.44.38l-.11.72-.18-.26a3.67,3.67,0,0,0-3-1.08,5.93,5.93,0,0,0-5.76,5.19,4.87,4.87,0,0,0,1,4,4,4,0,0,0,3.25,1.31A4.94,4.94,0,0,0,87.23,19l-.12.72a.45.45,0,0,0,.44.52h2.32a.75.75,0,0,0,.74-.63L92,10.82a.45.45,0,0,0-.44-.52Z"/><path class="cls-2" d="M66.89,10.3H64.29a.75.75,0,0,0-.62.33L60.1,15.9l-1.52-5.06a.75.75,0,0,0-.72-.53H55.31a.45.45,0,0,0-.43.59l2.86,8.38-2.69,3.79a.45.45,0,0,0,.37.71H58a.75.75,0,0,0,.62-.32L67.26,11a.45.45,0,0,0-.37-.71Z"/><path class="cls-1" d="M94.62,5.7,92.41,19.77a.45.45,0,0,0,.44.52h2.22a.75.75,0,0,0,.74-.63L98,5.84a.45.45,0,0,0-.44-.52H95.06a.45.45,0,0,0-.44.38Z"/><path class="cls-1" d="M18.16,6a4.72,4.72,0,0,0-1-4.25C16.06.54,14.07,0,11.52,0H4.13a1.06,1.06,0,0,0-1,.89L0,20.41a.63.63,0,0,0,.63.73H5.2l-.31,2a.55.55,0,0,0,.55.64H9.28a.92.92,0,0,0,.91-.78l0-.2L11,18.21,11,18a.92.92,0,0,1,.91-.78h.58c3.73,0,6.64-1.51,7.49-5.89.36-1.83.17-3.36-.77-4.43A3.66,3.66,0,0,0,18.16,6h0"/><path class="cls-3" d="M18.16,6a4.72,4.72,0,0,0-1-4.25C16.06.54,14.07,0,11.52,0H4.13a1.06,1.06,0,0,0-1,.89L0,20.41a.63.63,0,0,0,.63.73H5.2l1.15-7.27,0,.23a1.05,1.05,0,0,1,1-.89H9.52c4.26,0,7.59-1.73,8.57-6.73,0-.15.05-.29.08-.43"/><path class="cls-2" d="M7.57,6.07a.92.92,0,0,1,.91-.78h5.79a12.08,12.08,0,0,1,1.91.14l.49.09.46.12.22.07a5.22,5.22,0,0,1,.8.34,4.72,4.72,0,0,0-1-4.25C16.06.54,14.07,0,11.52,0H4.13a1.06,1.06,0,0,0-1,.89L0,20.41a.63.63,0,0,0,.63.73H5.2l1.15-7.27L7.57,6.07Z"/></g></g></svg>