<svg xmlns="http://www.w3.org/2000/svg" viewBox="0 0 19.33 15.71"><defs><style>.cls-1{isolation:isolate;}.cls-2{mix-blend-mode:overlay;}.cls-3{fill:#fff;}</style></defs><title>photo</title><g class="cls-1"><g id="Layer_2" data-name="Layer 2"><g id="Basework"><g id="photo" class="cls-2"><path class="cls-3" d="M17.52,2.42H14.74L13.29,0H6L4.59,2.42H1.81A1.92,1.92,0,0,0,0,4.21V13.9a1.86,1.86,0,0,0,1.69,1.81H17.56a2,2,0,0,0,1.77-1.79V4.23A1.93,1.93,0,0,0,17.52,2.42Zm.61,11.5c0,.24-.39.57-.56.58H1.69a.7.7,0,0,1-.48-.6V4.21c0-.38.51-.58.6-.58H5.27L5.63,3l1.1-1.83h5.92L13.72,3l.33.59h3.46c.43,0,.6.56.6.6v9.68Z"/><path class="cls-3" d="M9.67,4.23A4.23,4.23,0,1,0,13.9,8.46,4.23,4.23,0,0,0,9.67,4.23Zm0,7.25a3,3,0,1,1,3-3A3,3,0,0,1,9.67,11.48Z"/></g></g></g></g></svg>