<?xml version="1.0" encoding="UTF-8" standalone="no"?>
<!-- Generator: Adobe Illustrator 20.1.0, SVG Export Plug-In . SVG Version: 6.00 Build 0)  -->

<svg
   xmlns:dc="http://purl.org/dc/elements/1.1/"
   xmlns:cc="http://creativecommons.org/ns#"
   xmlns:rdf="http://www.w3.org/1999/02/22-rdf-syntax-ns#"
   xmlns:svg="http://www.w3.org/2000/svg"
   xmlns="http://www.w3.org/2000/svg"
   xmlns:sodipodi="http://sodipodi.sourceforge.net/DTD/sodipodi-0.dtd"
   xmlns:inkscape="http://www.inkscape.org/namespaces/inkscape"
   version="1.1"
   id="Layer_1"
   x="0px"
   y="0px"
   viewBox="0 0 15 15"
   style="enable-background:new 0 0 15 15;"
   xml:space="preserve"
   inkscape:version="0.91 r13725"
   sodipodi:docname="price.svg"><metadata
   id="metadata4713"><rdf:RDF><cc:Work
       rdf:about=""><dc:format>image/svg+xml</dc:format><dc:type
         rdf:resource="http://purl.org/dc/dcmitype/StillImage" /><dc:title></dc:title></cc:Work></rdf:RDF></metadata><defs
   id="defs4711" /><sodipodi:namedview
   pagecolor="#ffffff"
   bordercolor="#666666"
   borderopacity="1"
   objecttolerance="10"
   gridtolerance="10"
   guidetolerance="10"
   inkscape:pageopacity="0"
   inkscape:pageshadow="2"
   inkscape:window-width="1455"
   inkscape:window-height="903"
   id="namedview4709"
   showgrid="false"
   inkscape:zoom="22.627417"
   inkscape:cx="1.3541565"
   inkscape:cy="4.3365151"
   inkscape:window-x="0"
   inkscape:window-y="0"
   inkscape:window-maximized="0"
   inkscape:current-layer="Layer_1" />
<style
   type="text/css"
   id="style4701">
	.st0{fill:none;stroke:#D02300;stroke-miterlimit:10;}
	.st1{fill:none;stroke:#1200A2;stroke-miterlimit:10;}
</style>
<g
   id="g4703"
   transform="matrix(0.9651164,0,0,0.97084358,0.21429574,0.21943743)"
   style="fill:#000000;fill-opacity:1">
	<path
   style="color:#000000;font-style:normal;font-variant:normal;font-weight:normal;font-stretch:normal;font-size:medium;line-height:normal;font-family:sans-serif;text-indent:0;text-align:start;text-decoration:none;text-decoration-line:none;text-decoration-style:solid;text-decoration-color:#000000;letter-spacing:normal;word-spacing:normal;text-transform:none;direction:ltr;block-progression:tb;writing-mode:lr-tb;baseline-shift:baseline;text-anchor:start;white-space:normal;clip-rule:nonzero;display:inline;overflow:visible;visibility:visible;opacity:1;isolation:auto;mix-blend-mode:normal;color-interpolation:sRGB;color-interpolation-filters:linearRGB;solid-color:#000000;solid-opacity:1;fill:#000000;fill-opacity:1;fill-rule:nonzero;stroke:none;stroke-width:0.5;stroke-linecap:butt;stroke-linejoin:miter;stroke-miterlimit:10;stroke-dasharray:none;stroke-dashoffset:0;stroke-opacity:1;color-rendering:auto;image-rendering:auto;shape-rendering:auto;text-rendering:auto;enable-background:accumulate"
   d="M 7.0175781,-0.09179687 C 5.5062772,-0.03004298 3.9821222,0.49810689 2.640625,1.6074219 L 2.6386719,1.6074219 2.6386719,1.609375 C -0.0426573,3.878192 -0.56544488,7.2751999 0.453125,10.085938 1.4716949,12.896674 4.041791,15.150391 7.5,15.150391 11.12381,15.150391 14.321754,12.465447 15.044922,8.8496094 L 15.044922,8.8476562 15.046875,8.84375 C 15.975914,3.7340351 11.551481,-0.27705856 7.0175781,-0.09179687 Z M 5.8828125,1.5527344 C 5.9191689,1.56926 5.8828125,1.5527344 5.9472656,1.5820312 L 6.3359375,2.6503906 C 7.0316767,2.5551877 7.8163382,2.5517493 8.6054688,2.6503906 L 8.5996094,2.75 8.6464844,2.75 8.546875,4.4492188 8.5,4.4492188 8.4921875,4.4492188 C 8.4772068,4.446722 8.4622458,4.4515897 8.4472656,4.4492188 7.8877901,4.3606676 7.329,4.3623018 6.7695312,4.4492188 L 7.4375,6.5507812 7.6992188,6.5507812 C 8.2047042,6.5507812 8.8077156,6.6514769 9.3144531,6.8535156 9.7215137,6.9559053 10.033617,7.1620377 10.240234,7.4707031 10.544216,7.7769036 10.744021,8.1800028 10.845703,8.5839844 L 10.847656,8.5878906 C 11.543187,9.8986117 10.647123,11.476488 9.2558594,11.910156 L 9.7695312,13.449219 9.703125,13.449219 9.6992188,13.449219 8.9667969,13.541016 8.9707031,13.550781 8.9023438,13.550781 8.9003906,13.550781 8.8652344,13.550781 8.3652344,12.150391 C 7.6836397,12.428761 6.901602,12.433557 5.8691406,12.34375 L 5.8710938,12.349609 5.8007812,12.349609 C 5.7983386,12.349388 5.7973674,12.349832 5.7949219,12.349609 L 5.7636719,12.349609 5.1640625,10.650391 5.1992188,10.650391 5.2148438,10.552734 C 6.0902152,10.844525 6.960899,10.9244 7.8300781,10.650391 L 7.0644531,8.25 6.796875,8.25 6.7929688,8.25 C 6.088349,8.14934 5.3833066,7.9475127 4.7773438,7.6445312 L 4.7734375,7.6425781 4.7695312,7.640625 C 3.9063498,6.980545 3.5980622,6.0582163 3.7382812,5.1914062 3.8764046,4.3375541 4.4535073,3.542422 5.34375,3.0820312 L 4.9589844,1.8671876 C 5.5037748,1.6872581 5.6579239,1.6374527 5.8828125,1.5527344 Z M 5.890625,4.6386719 C 5.574777,4.8522149 5.3712196,5.242502 5.546875,5.6816406 L 5.5507812,5.6894531 5.5507812,5.6992188 C 5.5507812,5.8645557 5.7334482,6.0594113 5.8339844,6.1601562 6.0060122,6.2445759 6.2438878,6.3101098 6.4238281,6.328125 Z M 8.1738281,8.3671875 8.7226562,10.201172 C 8.9166874,10.097651 9.0593919,9.9284488 9.1132812,9.7128906 9.1704045,9.4843983 9.1404286,9.2356723 9.0566406,9.0507812 L 9.0507812,9.0507812 9.0507812,9 C 9.0507812,8.77 8.9146091,8.6127342 8.7246094,8.5058594 8.5571023,8.4116366 8.3523819,8.3775627 8.1738281,8.3671875 Z"
   id="path4705"
   inkscape:connector-curvature="0"
   sodipodi:nodetypes="scccsscccscccccccccsccsccccccccccccccccccccccccccsccsccccccscccccsccssc" />
</g>

</svg>