<svg xmlns="http://www.w3.org/2000/svg" viewBox="0 0 89.82 91"><defs><style>.cls-1,.cls-10,.cls-11,.cls-12,.cls-13,.cls-14,.cls-15,.cls-16,.cls-17,.cls-2,.cls-3,.cls-4,.cls-5,.cls-6,.cls-7,.cls-8,.cls-9{fill:none;stroke:#022169;stroke-linecap:round;stroke-linejoin:round;stroke-width:2px;}.cls-2{opacity:0.1;}.cls-3{opacity:0.2;}.cls-4{opacity:0.25;}.cls-5{opacity:0.3;}.cls-6{opacity:0.35;}.cls-7{opacity:0.4;}.cls-8{opacity:0.45;}.cls-9{opacity:0.5;}.cls-10{opacity:0.55;}.cls-11{opacity:0.6;}.cls-12{opacity:0.65;}.cls-13{opacity:0.7;}.cls-14{opacity:0.75;}.cls-15{opacity:0.8;}.cls-16{opacity:0.85;}.cls-17{opacity:0.9;}</style></defs><title>Recurso 3</title><g id="Layer_2" data-name="Layer 2"><g id="assets"><line class="cls-1" x1="45.41" y1="1" x2="45.41" y2="30"/><line class="cls-2" x1="30.16" y1="3.51" x2="40.08" y2="30.76"/><line class="cls-3" x1="16.69" y1="11.09" x2="35.33" y2="33.3"/><line class="cls-4" x1="6.62" y1="22.82" x2="31.74" y2="37.32"/><line class="cls-5" x1="1.17" y1="37.28" x2="29.73" y2="42.32"/><line class="cls-6" x1="1" y1="52.73" x2="29.56" y2="47.7"/><line class="cls-7" x1="6.12" y1="67.32" x2="31.24" y2="52.82"/><line class="cls-8" x1="15.92" y1="79.27" x2="34.56" y2="57.05"/><line class="cls-9" x1="29.22" y1="87.15" x2="39.14" y2="59.89"/><line class="cls-10" x1="44.41" y1="90" x2="44.41" y2="61"/><line class="cls-11" x1="59.66" y1="87.49" x2="49.74" y2="60.24"/><line class="cls-12" x1="73.13" y1="79.91" x2="54.49" y2="57.7"/><line class="cls-13" x1="83.2" y1="68.18" x2="58.08" y2="53.68"/><line class="cls-14" x1="88.65" y1="53.72" x2="60.09" y2="48.68"/><line class="cls-15" x1="88.82" y1="38.27" x2="60.26" y2="43.3"/><line class="cls-16" x1="83.7" y1="23.68" x2="58.58" y2="38.18"/><line class="cls-17" x1="73.9" y1="11.73" x2="55.26" y2="33.95"/><line class="cls-1" x1="60.6" y1="3.85" x2="50.68" y2="31.11"/></g></g></svg>