<svg xmlns="http://www.w3.org/2000/svg" viewBox="0 0 14.84 14.84"><defs><style>.cls-1{fill:#fff;}</style></defs><title>time</title><g id="Layer_2" data-name="Layer 2"><g id="Basework"><g id="clock_time_clock_watch" data-name="clock, time, clock, watch"><path class="cls-1" d="M7.42,0a7.42,7.42,0,1,0,7.42,7.42A7.42,7.42,0,0,0,7.42,0Zm0,13.93a6.5,6.5,0,1,1,6.49-6.51A6.51,6.51,0,0,1,7.42,13.93Z"/><path class="cls-1" d="M7.88,7.23V2.78a.46.46,0,0,0-.93,0V7.42a.46.46,0,0,0,.15.34v0l2.29,2.29a.46.46,0,1,0,.66-.66Z"/></g></g></g></svg>