<svg xmlns="http://www.w3.org/2000/svg" viewBox="0 0 16.33 13.27"><defs><style>.cls-1{fill:#36a9e1;}</style></defs><title>tw</title><g id="Layer_2" data-name="Layer 2"><g id="Basework"><g id="twitter"><g id="twitter-icon"><path class="cls-1" d="M16.33,1.57a6.69,6.69,0,0,1-1.92.53A3.36,3.36,0,0,0,15.88.24a6.68,6.68,0,0,1-2.13.81A3.35,3.35,0,0,0,8,4.12,9.51,9.51,0,0,1,1.14.61a3.36,3.36,0,0,0,1,4.47A3.33,3.33,0,0,1,.66,4.67,3.35,3.35,0,0,0,3.34,8a3.4,3.4,0,0,1-1.51.06A3.35,3.35,0,0,0,5,10.38a6.76,6.76,0,0,1-5,1.38,9.48,9.48,0,0,0,5.13,1.51,9.48,9.48,0,0,0,9.52-10A6.82,6.82,0,0,0,16.33,1.57Z"/></g></g></g></g></svg>