<svg xmlns="http://www.w3.org/2000/svg" viewBox="0 0 16.15 13.13"><defs><style>.cls-1{fill:#fff;}</style></defs><title>twitter</title><g id="Layer_2" data-name="Layer 2"><g id="Basework"><path class="cls-1" d="M16.15,1.55a6.62,6.62,0,0,1-1.9.52A3.32,3.32,0,0,0,15.7.24a6.61,6.61,0,0,1-2.1.8A3.32,3.32,0,0,0,8,4.07,9.41,9.41,0,0,1,1.12.61,3.32,3.32,0,0,0,2.15,5a3.29,3.29,0,0,1-1.5-.41A3.32,3.32,0,0,0,3.31,7.91,3.36,3.36,0,0,1,1.81,8a3.31,3.31,0,0,0,3.09,2.3A6.68,6.68,0,0,1,0,11.64a9.38,9.38,0,0,0,5.08,1.49A9.37,9.37,0,0,0,14.5,3.27,6.75,6.75,0,0,0,16.15,1.55Z"/></g></g></svg>