<svg xmlns="http://www.w3.org/2000/svg" xmlns:xlink="http://www.w3.org/1999/xlink" viewBox="0 0 40 12.26"><defs><style>.cls-1{fill:none;}.cls-2{clip-path:url(#clip-path);}.cls-3{fill:#005095;}.cls-4{fill:#f3a200;}</style><clipPath id="clip-path" transform="translate(0 0)"><rect class="cls-1" width="40" height="12.26"/></clipPath></defs><title>visa</title><g id="Layer_2" data-name="Layer 2"><g id="Basework"><g id="Ilustración_9" data-name="Ilustración 9"><g class="cls-2"><polygon class="cls-3" points="16.12 0.21 14.09 12.09 17.33 12.09 19.36 0.21 16.12 0.21"/><g class="cls-2"><path class="cls-3" d="M29.07.5a8.37,8.37,0,0,0-2.9-.5C23,0,20.72,1.61,20.7,3.92c0,1.71,1.61,2.66,2.84,3.23s1.68,1,1.68,1.47c0,.8-1,1.16-1.94,1.16a6.78,6.78,0,0,1-3-.62L19.81,9l-.45,2.66a10.25,10.25,0,0,0,3.61.63c3.4,0,5.61-1.59,5.64-4.06,0-1.35-.85-2.38-2.72-3.23-1.13-.55-1.83-.92-1.82-1.47s.59-1,1.85-1a6,6,0,0,1,2.42.45l.29.14L29.07.5" transform="translate(0 0)"/><path class="cls-3" d="M37.38.22h-2.5a1.61,1.61,0,0,0-1.7,1L28.37,12.09h3.4l.68-1.79H36.6c.1.42.39,1.78.39,1.78h3L37.38.22m-4,7.66,1.29-3.32s.27-.69.43-1.13l.22,1,.75,3.43Z" transform="translate(0 0)"/><path class="cls-3" d="M11.38.22,8.2,8.32,7.87,6.67a9.27,9.27,0,0,0-4.48-5l2.9,10.39H9.71L14.81.22H11.38" transform="translate(0 0)"/><path class="cls-4" d="M5.26.21H0L0,.45c4.06,1,6.75,3.36,7.87,6.22L6.73,1.21a1.36,1.36,0,0,0-1.47-1" transform="translate(0 0)"/></g></g></g></g></g></svg>